# ProBuilder 4.2.3
# https://unity3d.com/unity/features/worldbuilding/probuilder
# 21/05/2020 10:35:15

mtllib ./Glider.mtl
o Glider

g Glider
v 0 0 0
v -1 0 -0.8999996
v 0 0.01 0
v -1 0.01000023 -0.8999996
v -1 0 -1
v -1 0.01 -1
v 0 0 -0.8999996
v 0 0.01000023 -0.8999996
v 0.9050002 -0.6698285 -0.5814104
v 0.895 -0.6698285 -0.5814104
v 0.9000001 0.007369041 -0.294352
v 0.8899999 0.007369041 -0.294352
v 0.895 -0.6648294 -0.5900692
v 0.8899999 0.00514257 -0.3071869
v 0.9050002 -0.6648294 -0.5900692
v 0.9000001 0.00514257 -0.3071869
v 0.5999999 1.788139E-07 -7.450581E-07
v 1.6 3.576279E-07 -0.9000001
v 0.5999999 0.009999812 0
v 1.6 0.00999999 -0.8999994
v 1.6 3.576279E-07 -1.000001
v 1.6 0.00999999 -1
v 0.5999999 3.576279E-07 -0.9000001
v 0.5999999 0.00999999 -0.8999994
v -0.2950006 -0.6698285 -0.5814104
v -0.3049998 -0.6698285 -0.5814104
v -0.2900004 0.007369041 -0.294352
v -0.2999997 0.007369041 -0.294352
v -0.3049998 -0.6648294 -0.5900692
v -0.2999997 0.00514257 -0.3071869
v -0.2950006 -0.6648294 -0.5900692
v -0.2900004 0.00514257 -0.3071869
v 0 3.576279E-07 -0.9000001
v 0 0.00999999 -0.8999994

vt 0 0
vt -1.345362 0
vt 0 0.01
vt -1.345362 0.01000023
vt -0.8999996 0
vt -1 0
vt -0.8999996 0.01000023
vt -1 0.01
vt 1.094541 0
vt 0.08955365 0
vt 1.094541 0.01
vt 0.08955365 0.01000023
vt 0.8999996 0
vt 0.8999996 0.01000023
vt 1 -0.8999996
vt 0 -0.8999996
vt 1 -1
vt -1 -1
vt -1 -0.8999996
vt 0.005000114 -0.3672197
vt -0.005000114 -0.3672197
vt 0 0.3683067
vt -0.01000023 0.3683067
vt -0.001251668 -0.3677922
vt -0.01125008 -0.3677922
vt -0.09125003 0.3622245
vt -0.1012522 0.353879
vt 0.005000114 -0.3659181
vt -0.005000114 -0.3659181
vt 0.01000023 0.3613265
vt 0 0.3613265
vt 0.01125011 -0.3678609
vt 0.001251698 -0.3678609
vt 0.1012521 0.3538103
vt 0.09125 0.3621558
vt 0 0.1615343
vt 0.01000023 0.1615343
vt 0 0.1485077
vt 0.01000023 0.1485077
vt 0.005000114 -0.009998322
vt -0.005000114 -0.009998322
vt 0.005000114 0
vt -0.005000114 0
vt 1.345362 -5.681068E-08
vt -5.960464E-08 0.01000028
vt 1.345362 0.01000023
vt 0.9000003 0
vt 1 0
vt 0.9999993 0.01000023
vt -1.094541 9.313226E-10
vt -0.08955365 -1.750886E-07
vt -1.094541 0.0100004
vt -0.08955359 0.01000023
vt -0.09500074 -0.3672197
vt -0.105 -0.3672197
vt -0.09000063 0.3683067
vt -0.0999999 0.3683067
vt -0.001251668 -0.3685457
vt -0.01125008 -0.3685457
vt -0.09125 0.3614711
vt -0.1012521 0.3531256
vt 0.105 -0.3659181
vt 0.09500074 -0.3659181
vt 0.0999999 0.3613265
vt 0.09000063 0.3613265
vt 0.01125008 -0.3684846
vt 0.001251668 -0.3684845
vt 0.1012521 0.3531867
vt 0.09125 0.3615322
vt 0.09000063 0.1615343
vt 0.0999999 0.1615343
vt 0.09000063 0.1485077
vt 0.0999999 0.1485077
vt -0.09500074 -0.009998322
vt -0.105 -0.009998322
vt -0.09500074 0
vt -0.105 0
vt -0.6 0
vt -0.6 0.01
vt 0.6 4.656613E-10
vt 0.6 0.01
vt 0.8999993 0.01
vt 0 -0.9
vt 0.6 -0.9
vt -0.6 -0.9

vn -0.6689646 0 0.7432943
vn -1 0 0
vn 0.09950409 0 -0.9950371
vn 1 0 0
vn 0 1 2.545616E-07
vn 0 -1 0
vn 0 -0.3902761 0.9206979
vn -0.9999765 -0.005931685 -0.00342465
vn -0.9999716 -0.006992212 -0.001013868
vn -0.9999666 -0.00805274 0.001396912
vn 0 0.3889782 -0.9212469
vn 0.999976 0.006000279 0.003464252
vn 0.9999716 0.00698479 0.001040907
vn 0.9999673 0.007969301 -0.001382438
vn 0 0.9852853 -0.1709179
vn 0 -0.866026 -0.4999989
vn 0.6689645 -5.538178E-05 0.7432944
vn -0.09950433 7.117321E-05 -0.9950371
vn -0.9999765 0.005931685 0.00342465
vn -0.9999716 0.006992212 0.001013868
vn -0.9999666 0.00805274 -0.001396912
vn 0.999976 -0.006000279 -0.003464252
vn 0.9999716 -0.00698479 -0.001040907
vn 0.9999673 -0.007969301 0.001382438
vn 0 -7.450854E-05 1
vn 0 7.15282E-05 -1

usemtl Black
f 3/3/1 4/4/1 2/2/1 1/1/1
f 4/7/2 6/8/2 5/6/2 2/5/2
f 6/11/3 8/12/3 7/10/3 5/9/3
f 8/14/4 3/3/4 1/1/4 7/13/4
f 8/16/5 6/17/5 4/15/5 3/1/5
f 1/1/6 2/19/6 5/18/6 7/16/6
f 17/1/17 18/44/17 20/46/17 19/45/17
f 18/47/4 21/48/4 22/49/4 20/14/4
f 21/50/18 23/51/18 24/53/18 22/52/18
f 23/5/2 17/1/2 19/45/2 24/7/2
f 19/1/5 20/19/5 22/18/5 24/16/5
f 23/16/6 21/17/6 18/15/6 17/1/6
f 19/3/25 3/79/25 1/78/25 17/1/25
f 3/3/2 34/7/2 33/5/2 1/1/2
f 34/81/26 24/3/26 23/1/26 33/80/26
f 24/82/4 19/3/4 17/1/4 23/13/4
f 24/83/5 34/84/5 3/80/5 19/1/5
f 17/1/6 1/78/6 33/85/6 23/16/6

usemtl DefaultHDMaterial
f 11/22/7 12/23/7 10/21/7 9/20/7
f 12/26/9 14/27/10 13/25/9 10/24/8
f 14/30/11 16/31/11 15/29/11 13/28/11
f 16/34/13 11/35/14 9/33/13 15/32/12
f 16/38/15 14/39/15 12/37/15 11/36/15
f 9/42/16 10/43/16 13/41/16 15/40/16
f 27/56/7 28/57/7 26/55/7 25/54/7
f 28/60/20 30/61/21 29/59/20 26/58/19
f 30/64/11 32/65/11 31/63/11 29/62/11
f 32/68/23 27/69/24 25/67/23 31/66/22
f 32/72/15 30/73/15 28/71/15 27/70/15
f 25/76/16 26/77/16 29/75/16 31/74/16

